<svg xmlns="http://www.w3.org/2000/svg" width="20.091" height="17.23" viewBox="0 0 20.091 17.23"><defs><style>.a{fill:#509380;}</style></defs><g transform="translate(0 -31.842)"><g transform="translate(0 31.842)"><path class="a" d="M18.883,39.046a1.436,1.436,0,0,0-.249-.018H4.461l.309-.144a2.875,2.875,0,0,0,.812-.575l3.975-3.975a1.488,1.488,0,0,0,.208-1.9,1.437,1.437,0,0,0-2.156-.187L.421,39.431a1.437,1.437,0,0,0,0,2.033h0l7.187,7.187a1.438,1.438,0,0,0,2.156-.144,1.488,1.488,0,0,0-.208-1.9L5.589,42.622A2.875,2.875,0,0,0,4.87,42.1L4.439,41.9H18.555A1.488,1.488,0,0,0,20.072,40.7,1.438,1.438,0,0,0,18.883,39.046Z" transform="translate(0 -31.842)"/></g></g></svg>