<svg xmlns="http://www.w3.org/2000/svg" width="329.998" height="110.53" viewBox="0 0 329.998 110.53"><defs><style>.a{fill:#fff;}</style></defs><g transform="translate(-0.582 534.876)"><path class="a" d="M981.226-534.083a13.283,13.283,0,0,0-1.831,2.192,8.077,8.077,0,0,1-.98,1.367,20.352,20.352,0,0,1-1.444-1.96c-1.625-2.425-2.038-2.3-1.522.438.387,2.012.232,2.631-.748,2.76a2.258,2.258,0,0,1-1.29-.438c-1.186-.851-2.244-.722-3.4.464A2.456,2.456,0,0,0,969-527.454c0,1.006.671,1.083,1.548.155.774-.825,1.393-.825,2.5,0l.851.671,1.651-.929a4.028,4.028,0,0,1,1.78-.722,5.126,5.126,0,0,1,.31,1.032l.181.851.929-.645a5.382,5.382,0,0,1,1.883-.8,8.33,8.33,0,0,0,4.049-2.94,2.1,2.1,0,0,0,.438-1.805c-.335-1.754-.671-2.192-1.857-2.27A2.179,2.179,0,0,0,981.226-534.083Zm1.805,2.45a4.41,4.41,0,0,1-2.115,1.5c-.567.155-.593.129-.309-.438a9.909,9.909,0,0,1,1.109-1.444c.722-.748.851-.8,1.186-.438C983.212-532.148,983.238-531.942,983.031-531.633Z" transform="translate(-718.636 0)"/><path class="a" d="M755.542-533.091c-.748.335-2.27,2.141-3.3,3.92a2.593,2.593,0,0,1-.619.851c-.335,0-1.522-1.47-2.038-2.528-.31-.619-.7-1.057-.877-1.006-.361.1-.413,2.3-.1,3.2.284.748-.593,1.032-1.47.464a2.632,2.632,0,0,0-1.6-.335c-.877.077-1.032.206-1.857,1.677l-.877,1.625h.671a1.659,1.659,0,0,0,1.109-.516,1.012,1.012,0,0,1,1.677-.077c.438.387.567.361,2.218-.258a16.473,16.473,0,0,1,1.935-.7c.387,0,.7,1.315.438,1.831-.232.413-.181.49.258.49.335,0,.671-.31.954-.9.361-.774.568-.9,1.29-.9,1.754,0,4.746-2.218,5.055-3.766C758.843-532.369,757.45-533.865,755.542-533.091Zm.98,2.734a2.328,2.328,0,0,1-.258,1.006c-.258.49-2.476,1.47-2.734,1.212-.284-.284.8-2.115,1.444-2.425C755.954-531.054,756.522-530.976,756.522-530.357Z" transform="translate(-550.779 -1.172)"/><path class="a" d="M515.984-519.465a6.984,6.984,0,0,0,1.6,2.657,26,26,0,0,1,2.45,3.792,6.879,6.879,0,0,1,.851,3.92v2.141h-3.663c-4.488,0-4.772-.129-6.706-3.069-1.419-2.141-2.192-2.708-1.934-1.393.7,3.637.748,4.643.31,5.313-.49.748-.877.7-2.038-.284-1.754-1.419-2.579-1.264-4,.825-.851,1.238-1.006,1.986-.464,2.45.258.206.567.026,1.341-.748l.98-1.006,1.238.645c1.7.851,2.708.8,4.049-.181l1.083-.8,2.012.439a17.254,17.254,0,0,0,5.21.31c4.54-.206,7.17-1.083,13.283-4.54,4.385-2.45,5.545-2.94,5.545-2.347a15.54,15.54,0,0,1-1.96,2.528c-2.554,2.966-3.534,4.462-4.23,6.577a7.586,7.586,0,0,1-1.135,2.347,10.225,10.225,0,0,1-2.992,1.444c-6.938,2.373-15.3,6.139-18.829,8.46-3.972,2.605-5.6,5.365-4.1,6.99.774.825,1.805,1.212,4.2,1.6,1.909.284,2.063.284,2.4-.181.825-1.135-.077-1.754-3.25-2.218-1.883-.284-2.089-.361-2.089-.877,0-2.631,14.289-9.053,36.755-16.482,3.559-1.161,7.17-2.476,8.047-2.94,1.7-.851,2.476-1.728,1.78-1.986-.645-.258-2.631.31-11.375,3.2-4.539,1.5-8.305,2.657-8.383,2.605-.206-.155-.026-1.264.413-2.579a11.468,11.468,0,0,1,2.45-3.482c3.044-3.353,4.359-5.21,4.359-6.165a1.579,1.579,0,0,0-1.6-1.677,34.361,34.361,0,0,0-5.391,2.425c-4.9,2.5-8.383,4.024-9.26,4.024-.464,0-.516-.181-.516-1.5-.026-2.863-.7-4.875-2.786-8.305C518.254-519.8,515.984-520.986,515.984-519.465Z" transform="translate(-372.144 -10.93)"/><path class="a" d="M431.751-515.066a13.528,13.528,0,0,1-2.141,1.934c-.129,0-.49-.49-.8-1.109-.671-1.315-1.264-2.012-1.548-1.831a6.057,6.057,0,0,0-.232,2.218v2.063l-.7-.181a2.741,2.741,0,0,1-1.135-.542c-.542-.49-1.186-.438-2.45.129-1.083.49-1.857,1.7-1.548,2.476.129.361.335.31,1.419-.31,1.186-.645,1.315-.671,1.754-.284,1.006.9,1.754,1.006,2.682.31,1.212-.877,1.5-.8,1.341.387-.206,1.444.49,1.625,1.264.31.542-.954.567-.954,1.934-.851a2.862,2.862,0,0,0,2.4-.567c1.135-.748,2.579-3.018,2.579-4.049A2.032,2.032,0,0,0,434.589-517C433.789-517,433.428-516.768,431.751-515.066Zm3.018,1.186c0,.645-.155.825-.929,1.161a4.311,4.311,0,0,1-1.728.31l-.825-.077,1.006-1.109c.722-.8,1.186-1.083,1.728-1.083C434.692-514.679,434.769-514.576,434.769-513.879Z" transform="translate(-312.079 -13.266)"/><path class="a" d="M888.519-514.5c-.129.258-.567,1.29-.954,2.27-1.341,3.508-.49,6.01,1.831,5.417,1.006-.258,2.3-1.548,3.172-3.224l.825-1.522-1.78-1.212a6.932,6.932,0,0,1-1.909-1.7C889.551-515.092,888.855-515.118,888.519-514.5Zm1.212,3.353a1.508,1.508,0,0,1,.387.98c.052.7-.026.748-.9.825-1.032.077-1.057.052-.825-1.212C888.571-511.353,889.035-511.559,889.732-511.146Z" transform="translate(-657.732 -14.786)"/><path class="a" d="M828.413-498.812c-.387.387.593,1.522,2.528,2.915,2.605,1.909,5.159,4.617,5.958,6.319a6.32,6.32,0,0,1,.619,2.889c0,1.419-.077,1.625-.825,2.347a12.381,12.381,0,0,1-2.992,1.728c-2.786,1.161-4.23,2.012-5.055,3.018-.645.774-.929,2.3-.413,2.3.129,0,2.889-1.419,6.113-3.147a159.848,159.848,0,0,1,17.513-8.408c6.99-2.553,13.386-5.313,13.954-6.036.258-.31.258-.464-.026-.851-.593-.8-6.526,1.315-17.126,6.113a98.729,98.729,0,0,1-9.492,3.972c-.232-.077-.361-.516-.361-1.109a15.152,15.152,0,0,0-1.986-6.19,17.115,17.115,0,0,0-6.887-5.6C828.852-499.018,828.645-499.044,828.413-498.812Z" transform="translate(-613.978 -26.656)"/><path class="a" d="M995.074-493.151c-.929.516-1.7,4.823-1.057,5.829.438.671.98,3.843,1.367,8.125.155,1.754,1.032,7.686,1.934,13.232,3.044,18.416,5.03,32.628,5.417,38.612.155,2.244.232,2.528.671,2.528.671,0,.929-.645,1.264-3.121a52.35,52.35,0,0,0,.361-11.839c-.464-4.565-2.115-15.115-4.385-27.985-1.393-7.918-1.883-11.271-1.728-11.787l.206-.7,1.754,1.573c1.135,1.006,1.857,1.47,2.012,1.315.671-.671-1.264-5.674-4.565-11.787C996.39-492.712,995.745-493.538,995.074-493.151Z" transform="translate(-737.024 -30.899)"/><path class="a" d="M1159.274-488.043a21.982,21.982,0,0,0-2.038,5.339c-.258,1.909,1.78,3.1,3.792,2.192a5.289,5.289,0,0,0,3.018-3.4,1.621,1.621,0,0,0-.671-1.78,8.463,8.463,0,0,0-1.909-1.264c-.825-.413-1.109-.671-1.161-1.238C1160.2-489.127,1159.893-489.075,1159.274-488.043Zm1.6,3.276c1.934.671,2.012.722,1.7,1.29a4.052,4.052,0,0,1-2.966,1.548c-.877,0-.954-.052-.825-.593a15.783,15.783,0,0,0,.335-1.677,7.035,7.035,0,0,1,.232-1.083C1159.377-485.284,1160.048-485.051,1160.873-484.768Z" transform="translate(-858.304 -34.149)"/><path class="a" d="M772.242-483.652a5.9,5.9,0,0,0-.7,5.958,22.658,22.658,0,0,1,1.161,5.6c1.161,8.563,2.347,15.785,4.488,27.65.567,3.044,1.393,8.2,1.831,11.478.774,5.649,1.6,10.137,1.96,10.73.335.542.645-.232,1.032-2.5.567-3.534-.052-13.464-1.315-21.124l-.387-2.321.851-.722a43.275,43.275,0,0,1,4.694-2.708c4.54-2.321,8.1-4.643,9.053-5.881.8-1.058,1.7-1.135,3.43-.361l1.135.516.619-.567c.851-.8.825-2.579-.077-3.946-1.909-2.863-4.178-4.23-5.907-3.585-1.058.413-2.089,4.462-1.573,6.319.258,1.032.258,1.083-.542,1.754-2.063,1.7-10.859,6.732-11.813,6.732a.63.63,0,0,1-.49-.464c-.31-1.109-3.3-19.448-3.173-19.551.181-.206,1.625.567,3.1,1.625l1.212.9v-.671c0-1.522-1.934-5.6-5.623-11.89C772.732-484.865,773.016-484.581,772.242-483.652Zm23.239,21.718c.413.413.413,1.754,0,1.754-.929-.026-1.5-.361-1.5-.877,0-.619.438-1.186.9-1.186A1.022,1.022,0,0,1,795.481-461.935Zm2.682.516c.645.49.7,1.341.1,1.444-.567.129-.929-.335-.929-1.186C797.338-461.806,797.57-461.883,798.164-461.419Z" transform="translate(-571.735 -37.586)"/><path class="a" d="M206.513-480.785a8.119,8.119,0,0,1-.98.258c-1.109.258-2.811,2.012-3.663,3.74-.671,1.444-.7,1.625-.335,1.986s.542.361,1.909-.026a13.531,13.531,0,0,1,3.972-.335c3.121.1,3.3.464.98,1.883-2.528,1.522-4.591,3.069-4.488,3.353.232.8,2.94.155,6.113-1.444,2.708-1.341,5.339-4.875,5.6-7.506.1-1.161.077-1.238-.619-1.522A53,53,0,0,0,206.513-480.785Z" transform="translate(-148.95 -40.093)"/><path class="a" d="M185.083-480.3c-.155.413-.438,1.393-.645,2.192-.361,1.341-.335,1.625.129,3.482.825,3.3,1.5,6.887,2.244,11.813.361,2.553,1.419,8.77,2.347,13.8,3.2,17.616,3.714,20.505,3.869,22.233.155,1.677.129,1.754-.645,2.476-1.238,1.161-3.611,2.3-8.512,4.1a71.148,71.148,0,0,0-6.706,2.786c-6.113,3.25-10.833,7.764-15.914,15.218-2.244,3.276-4.978,6.01-6.99,6.99a7.434,7.434,0,0,1-3.456.825c-2.476.129-3.4-.413-4.514-2.657-.722-1.419-.774-1.754-.748-4.127.026-2.528.052-2.657,1.444-6.061,3.714-9.079,7.093-14.16,9.956-14.96,1.419-.387,1.419-.387,2.476,1.212a6.718,6.718,0,0,0,5.442,3.43c1.5,0,1.78-.438,1.6-2.631a7.811,7.811,0,0,0-2.089-5.081c-.954-.9-.851-1.419.438-1.934,4.669-1.909,11.014-4.178,11.014-3.921a14.645,14.645,0,0,1-.387,1.7,17.251,17.251,0,0,0-.387,3.559c0,2.063.026,2.192.748,2.863a5.411,5.411,0,0,0,1.857,1.032c1.032.31,1.135.284,1.522-.181a8.674,8.674,0,0,0,.851-2.5c.438-1.909.438-2.012,0-2.321-.387-.31-.516-.232-.98.567-.8,1.419-1.29,1.625-2.038.851-.567-.619-.593-.748-.387-2.45.387-3.43.567-3.688,3.482-5.21a36.425,36.425,0,0,1,3.946-1.78,7.818,7.818,0,0,0,2.3-1.238c1.367-1.186,2.811-4.772,2.089-5.184-.387-.258-10.678-1.96-17.771-2.966a134.75,134.75,0,0,0-17.926-1.728c-5.184-.129-5.494-.1-6.964.438a7.991,7.991,0,0,0-2.837,1.909c-1.831,1.831-2.063,3.069-1.186,6.732.464,1.883.619,2.167,1.728,3.173a36.344,36.344,0,0,0,10.137,6.19l1.393.567-1.135.825c-9.647,6.938-15.527,11.813-19.989,16.585C122.948-398,115.21-392.041,109.948-391.215c-2.192.361-2.76.206-4.153-1.083-2.76-2.553-3.173-7.712-1.109-14.031a45.186,45.186,0,0,1,4.282-9.1,19.843,19.843,0,0,0,3.869-10.033c.335-3.353-.026-6.345-3.044-24.4-1.444-8.641-2.553-15.759-2.476-15.837a7.433,7.433,0,0,1,1.909,1.444c1.548,1.341,1.831,1.522,2.115,1.186.438-.542,0-1.677-2.425-6.061-3.25-5.984-5.21-9.156-5.6-9.156-.438,0-1.5,2.966-1.522,4.23a42.217,42.217,0,0,0,.748,4.514c.413,1.986,1.393,7.4,2.192,12.019.774,4.617,2.063,11.581,2.837,15.476,2.553,12.819,3.173,17.488,2.4,18.648-.722,1.109-6.422,3.74-10.472,4.823a37.272,37.272,0,0,0-9.389,4.591,38.839,38.839,0,0,0-9.775,8.718c-5.8,6.938-9.75,10.91-11.916,12.019a4.855,4.855,0,0,1-2.889.413c-2.218-.1-2.992-.567-3.972-2.3-.593-1.032-.645-1.393-.619-4.23a13.164,13.164,0,0,1,.722-5.288,55.958,55.958,0,0,1,9.053-16.121c2.167-2.708,3.327-3.508,7.4-5.236a56.485,56.485,0,0,1,17.23-4.669,16.472,16.472,0,0,1,5.752.181l2.811.464.748-.9c1.032-1.264,2.425-3.972,2.244-4.436-.1-.258-1.135-.516-3.3-.825-3.276-.464-10.214-1.831-13.8-2.708a55.918,55.918,0,0,1-5.391-1.831A106.859,106.859,0,0,0,70.588-445.3a23.275,23.275,0,0,0-6.139-.284c-4.875.181-5.958.567-7.067,2.631-.7,1.264-1.315,3.482-1.083,3.74.077.077,2.528.31,5.468.542l5.339.413.645-.593.645-.567,7.557,2.605c7.119,2.424,8.1,2.889,7.248,3.4-.567.361-11.065,3.817-14.16,4.669-4.2,1.135-5.468,1.161-7.119.026-1.47-1.006-2.373-2.167-3.946-5.081a22.782,22.782,0,0,0-2.167-3.25c-.9-1.032-1.109-1.135-2.192-1.135-1.651,0-3.353.851-5.907,2.94-3.1,2.476-3.869,3.4-4.978,5.7a18.964,18.964,0,0,0-1.78,9.234l.026,3.069-.722.438c-.413.258-2.321,1.29-4.23,2.321s-4.385,2.528-5.52,3.327a62.213,62.213,0,0,0-9.775,9.466c-6.01,7.428-11.091,11.349-14.083,10.807-2.115-.387-3.379-1.651-4.282-4.333a9,9,0,0,1-.361-4.153c.181-3.121.9-5.133,3.585-10.033A28.545,28.545,0,0,0,7.4-413.062c0-.619,2.038-2.631,3.482-3.456,1.238-.722,1.419-.929,2.528-3.3a16.982,16.982,0,0,0,1.986-7.48c0-2.218-.413-2.012-1.47.748-.954,2.45-2.089,4-3.353,4.514-.774.335-.954.31-1.857-.155-2.089-1.057-3.121-3.327-3.3-7.377-.258-4.9,1.419-10.188,6.422-20.325,3.25-6.577,3.921-8.151,3.379-8.151-1.47.052-8.228,12.226-10.317,18.571a30.088,30.088,0,0,0-2.012,12.252c0,4.23.052,4.772.593,6.216a18.248,18.248,0,0,0,2.038,3.482l1.419,1.883L4.739-411.23c-1.212,2.425-2.657,5.674-3.2,7.222a12.966,12.966,0,0,0-.954,6.19c0,2.863.077,3.559.567,4.823A9.61,9.61,0,0,0,6.106-388.3c1.573.748,1.857.8,4.385.774a11.774,11.774,0,0,0,6.964-1.934,68.592,68.592,0,0,0,6.448-6.6c2.915-3.224,5.907-6.474,6.68-7.222a29.911,29.911,0,0,1,9.956-6.01c1.78-.7,2.218-.774,4.978-.774a25.549,25.549,0,0,1,6.99.9c4.565,1.057,4.823,1.057,5.184.387a7.151,7.151,0,0,0,.181-4.411c-.722-1.728-3.327-3.147-7.274-3.972a12.676,12.676,0,0,1-3.1-1.032,19.979,19.979,0,0,1-4.2-4.127c-.284-.567.155-1.651,1.6-3.946a22.276,22.276,0,0,1,5.468-4.823c1.728-.8,2.992.052,3.946,2.682,1.161,3.173,3.43,5.7,5.881,6.577a9.374,9.374,0,0,0,5.984.155,14.743,14.743,0,0,1,2.476-.464,40.014,40.014,0,0,1-2.373,4.359,118.037,118.037,0,0,0-6.68,13,18.226,18.226,0,0,0-.567,5.184c-.1,3.843-.077,3.946.593,5.339A9.2,9.2,0,0,0,63.882-390a12.528,12.528,0,0,0,8.073.31,18.109,18.109,0,0,0,2.631-1.238c1.6-1.006,4.462-4.049,6.577-7.016,3.946-5.571,8.408-9.569,13.232-11.865a80.195,80.195,0,0,1,10.214-4.1c.98-.206,1.058-.181,1.058.335a20.482,20.482,0,0,1-1.522,3.559c-3.3,6.577-4.23,11.4-3.147,16.585.877,4.282,2.45,6.861,4.952,8.254,1.315.722,1.548.774,4.359.774,2.657,0,3.121-.077,4.385-.671,3.482-1.651,5.8-3.714,17.023-14.96,9.982-10.008,16.843-16.482,17.152-16.172a28.122,28.122,0,0,1-1.78,4.1c-1.058,2.192-2.218,4.849-2.605,5.932-.645,1.857-.671,2.167-.593,5.8.077,3.792.1,3.869.954,5.6a9.127,9.127,0,0,0,4.926,4.669,10.549,10.549,0,0,0,7.712-.774c2.94-1.883,5.21-4.282,7.893-8.486A34.413,34.413,0,0,1,177.525-411.1a65.1,65.1,0,0,1,6.912-3.1c5.468-2.115,6.784-2.811,8.383-4.514a10.127,10.127,0,0,0,2.734-4.952,22.709,22.709,0,0,0,.284-6.835c-.929-6.861-2.553-16.92-5.159-31.545-.645-3.534-1.109-6.474-1.058-6.526a10.133,10.133,0,0,1,1.419,1.341c1.419,1.522,2.321,1.857,2.321.9,0-.748-1.367-4.1-2.631-6.422-1.6-2.992-4.9-8.254-5.159-8.254C185.444-481,185.237-480.69,185.083-480.3Zm-24.219,41.088c6.732.619,14.5,1.522,14.676,1.7.258.258-.49.619-4.024,2.012-2.012.774-5.726,2.321-8.254,3.4-2.889,1.264-4.668,1.883-4.849,1.754s-1.212-.9-2.321-1.754a75.658,75.658,0,0,0-9.234-5.7c-3.456-1.806-2.631-2.244,3.817-2.063C153.229-439.809,157.82-439.5,160.863-439.216Z" transform="translate(0 -39.98)"/><path class="a" d="M453.241-473.665a12.883,12.883,0,0,0-.8,2.579l-.542,2.244.542,1.754a24.229,24.229,0,0,1,.774,4.178c.1,1.341.516,4.178.877,6.319,1.47,8.718,2.889,18.7,4.385,31.467C460.334-409.7,460.334-409.7,461-409.57c.542.1.645-.232,1.238-4.359,1.006-6.809.9-9.131-.9-19.448-.567-3.3-3.817-24.71-4.153-27.469l-.129-1.161,1.367,1.5c1.522,1.651,2.528,1.986,2.528.825,0-.929-1.393-4.565-2.605-6.809C457.342-468.3,453.757-474,453.6-474A2.618,2.618,0,0,0,453.241-473.665Z" transform="translate(-334.91 -45.175)"/><path class="a" d="M151.712-464.3c-2.5.645-12.045,3.921-21.795,7.428-28.14,10.162-51.354,20.97-50.4,23.471.232.619.413.567,2.631-.7,6.5-3.688,18.519-9.208,30.178-13.851,9.492-3.792,28.6-10.652,35.878-12.871a23.138,23.138,0,0,0,5.726-2.4,3.466,3.466,0,0,0,1.006-1.573C154.936-465.077,154.059-464.923,151.712-464.3Z" transform="translate(-58.555 -51.905)"/><path class="a" d="M109.372-451.613c-1.6.645-2.631,3.379-3.585,9.621l-.155,1.006-1.522-2.321c-2.5-3.792-4.746-5.339-6.964-4.8-.851.232-.9.31-.98,1.419a2.274,2.274,0,0,0,.593,1.986,3.027,3.027,0,0,0,3.585.98,9.269,9.269,0,0,1,1.083-.413c.361,0,2.45,3.714,2.682,4.746.387,1.7.98,2.786,1.5,2.682.31-.052.542-.851,1.006-3.559.929-5.52,2.218-9.027,3.276-9.027a1.988,1.988,0,0,1,.929.645c.7.722,1.341.825,1.805.258s-.1-1.754-1.264-2.708C110.378-451.923,110.223-451.974,109.372-451.613Z" transform="translate(-70.921 -61.629)"/><path class="a" d="M1072.407-443.527a5.537,5.537,0,0,0-2.966,3.069c-.284,1.057-.284,1.083.8,2.063,1.057,1.006,1.083,1.032.8,2.063a3.738,3.738,0,0,0-.155,1.161c.232.258,1.47-.258,2.244-.929a22.6,22.6,0,0,1,2.347-1.6c2.244-1.341,3.482-2.45,3.1-2.863-.232-.232-.774-.155-2.528.387a10.228,10.228,0,0,1-3.43.619c-1.109-.077-1.212-.129-1.29-.774a.853.853,0,0,1,.464-.98c.49-.258.7-.206,1.419.516,1.186,1.161,1.677.929,1.677-.774a2.263,2.263,0,0,0-.516-1.805C1073.774-443.965,1073.49-443.991,1072.407-443.527Z" transform="translate(-793.052 -67.549)"/><path class="a" d="M1159.71-439.639c-1.548.671-2.708,2.992-3.25,6.5a6.233,6.233,0,0,1-.464,1.909c-.1,0-.335-.49-.516-1.109-1.032-3.508-3.3-5.855-5.674-5.855-1.341,0-1.806.413-1.806,1.573a2,2,0,0,0,.8,1.806c.98.929,2.682,1.5,3.121,1.057.929-.929,1.393-.181,3.327,5.416a6.538,6.538,0,0,0,.774,1.754,41.361,41.361,0,0,0,1.651-6.448,8.656,8.656,0,0,1,2.192-4.514l.8-.774.722.877c.9,1.109,1.573.954,1.573-.31A2.341,2.341,0,0,0,1161.1-440,5.564,5.564,0,0,0,1159.71-439.639Z" transform="translate(-851.467 -70.405)"/><path class="a" d="M924.646-430.491c-.129.335.361,1.831,1.573,4.849.155.387.052.464-.542.464-1.057,0-1.212-.181-2.167-2.063-2.115-4.2-2.889-4.1-1.831.284.516,2.218.387,2.863-.671,3.4a1.5,1.5,0,0,1-2.244-.9c-.335-.825-.284-1.909.232-4.669.155-.825.129-.954-.284-.954-1.677.026-3.714,1.883-3.714,3.379,0,1.006.593,1.393,1.161.748a1.6,1.6,0,0,1,.7-.516,4.466,4.466,0,0,1,.206,1.831c0,2.3.516,3.508,1.754,4.024,1.186.49,2.244.129,3.895-1.367L924-423.14l.542.542a2.062,2.062,0,0,0,1.5.516c1.187,0,1.5-.206,1.831-1.109.645-1.7.052-4.256-1.444-6.216C925.343-430.826,924.879-431.11,924.646-430.491Z" transform="translate(-678.564 -77.232)"/><path class="a" d="M251.613-411.864a9.915,9.915,0,0,0-2.4,6.422c-.129,2.837.1,3.379,1.805,4.23l1.238.645.645-.619a4.9,4.9,0,0,0,1.6-3.663c-.1-1.522-.7-1.419-1.238.206-.516,1.548-1.264,1.831-1.96.774-.593-.929-.387-2.682.774-6.061.516-1.47.929-2.786.929-2.889C253.005-413.308,252.49-412.947,251.613-411.864Z" transform="translate(-184.48 -90.417)"/><path class="a" d="M660-408.392a10.622,10.622,0,0,0,.722,3.121c.929,2.708.877,3.069-.438,2.553-.49-.181-.8-.671-1.341-2.141a11.78,11.78,0,0,0-1.187-2.528c-.438-.593-.516-.619-.9-.232s-.361.619.206,2.863c.671,2.657.619,3.147-.49,3.559-1.264.49-1.7-.232-2.012-3.2-.181-1.728-.516-2.476-1.083-2.476-1.006,0-1.883,2.321-1.006,2.682.258.077.387.49.387,1.186a4.922,4.922,0,0,0,1.6,3.456,2.779,2.779,0,0,0,1.419.413c1.083,0,2.605-.722,2.811-1.341.155-.567.335-.567.98-.077a2.584,2.584,0,0,0,2.657,0c.98-.7,1.212-2.192.619-4.1-.671-2.167-1.444-3.688-2.063-4.024C660.2-409.037,660.15-409.011,660-408.392Z" transform="translate(-483.476 -93.475)"/><path class="a" d="M580.581-405.61c-1.212.645-2.347,3.224-3.069,6.887-.155.825-.387,1.5-.516,1.5a5.268,5.268,0,0,1-1.057-1.341c-1.857-2.889-3.43-4.153-5.159-4.127-1.315.026-1.78.413-1.78,1.47,0,1.212.929,1.857,2.915,2.089a3.252,3.252,0,0,1,2.682,1.315,5.662,5.662,0,0,1,1.264,1.831c.438,2.038,1.032,3.534,1.419,3.611.335.052.49-.284.748-1.677a59.037,59.037,0,0,1,1.857-7.48,8.64,8.64,0,0,1,.8-1.419l.464-.722,1.006.516a5.917,5.917,0,0,0,1.264.516c.438,0,.593-1.006.284-1.934C583.238-405.971,582-406.384,580.581-405.61Z" transform="translate(-421.807 -95.638)"/><path class="a" d="M326.86-403.639c-.232.284-.077.877.774,2.682,1.135,2.476,1.161,3.147.155,3.147-.8,0-1.083-.335-2.5-3.069-.877-1.651-1.315-2.244-1.754-2.3-.7-.1-.7-.077-.026,3.379.774,3.817.413,4.54-1.806,3.766l-.8-.284v-2.5c0-2.244-.052-2.5-.542-2.811-1.083-.671-2.579.542-2.915,2.347-.155.825-.026.851,1.083.181l.825-.516v2.063c0,2.373.31,3.2,1.315,3.637,1.5.593,4.23-.284,4.514-1.47.155-.567.284-.645.851-.49.361.077,1.315.232,2.115.31,1.315.129,1.5.077,1.883-.464.593-.851.542-3.173-.129-4.591-.542-1.212-2.167-3.379-2.528-3.379A.864.864,0,0,0,326.86-403.639Z" transform="translate(-235.096 -97.12)"/><path class="a" d="M1069.138-386.677c-1.315.774-2.244,2.915-2.915,6.784l-.464,2.528-1.109-1.728a21.62,21.62,0,0,0-2.631-3.121c-1.728-1.6-3.1-2.115-4.591-1.754-.928.232-.928.232-.928,1.6.026,1.161.129,1.47.7,1.96a3.921,3.921,0,0,0,1.625.748,1.414,1.414,0,0,0,1.548-.361l.568-.542,1.186,1.315c1.135,1.238,1.78,2.373,2.992,5.21.825,1.986,1.212,1.651,1.573-1.419.361-3.327,1.393-7.583,2.038-8.434.645-.877,1.135-.929,2.089-.206.8.593.825.593,1.186.1.49-.671.49-.7-.413-1.909C1070.763-387.038,1070.119-387.245,1069.138-386.677Z" transform="translate(-783.567 -109.748)"/><path class="a" d="M894.453-376.329a6.252,6.252,0,0,0-.567,2.657c-.1,1.909-.077,2.063.929,4.024.567,1.135,1.367,3.044,1.805,4.256s1.393,3.534,2.115,5.159a65.761,65.761,0,0,1,3.766,9.543l.155.98-1.651.181a8.754,8.754,0,0,1-6.809-2.244,1.653,1.653,0,0,1-.7-1.857c.284-2.3-1.393-1.548-2.244,1.006-1.522,4.591-4.23,5.855-8.254,3.843l-1.857-.954.181-2.012a6.374,6.374,0,0,0,0-2.038c-.645,0-1.78,1.006-2.579,2.321a15.26,15.26,0,0,1-4.462,5.107c-1.393.877-1.625.929-3.946,1.032-2.115.1-2.605.026-3.508-.438-1.522-.748-2.76-2.347-3.714-4.746-.98-2.476-1.341-3.121-2.4-4.256a2.128,2.128,0,0,0-2.089-.825c-2.837,0-5.571,2.141-8.537,6.706a15.749,15.749,0,0,0-2.605,11.633l.206,1.186-1.341.464c-2.424.774-5.932,2.657-10.472,5.6a17.645,17.645,0,0,0-4.643,4.282c-4.591,5.545-9.389,10.059-11.813,11.168-2.579,1.186-5.881.31-7.093-1.857-.593-1.032-.645-1.393-.619-4.1l.026-2.966,1.315-2.915a30.441,30.441,0,0,1,4.849-7.944c2.889-3.637,3.018-3.714,5.907-3.714,4.127,0,6.706-1.341,8.1-4.178,2.063-4.2.9-10.859-3.4-19.551-1.006-2.063-1.883-3.817-1.934-3.946-.052-.1.206-.077.593.077,1.857.7,2.115.077.929-2.3-1.315-2.579-5.339-6.474-5.881-5.649-.361.593-.413,5.391-.077,6.887a36.439,36.439,0,0,0,1.857,4.8c3.379,7.3,5.829,13.258,6.061,14.625l.155.98-1.5.645a10.911,10.911,0,0,1-5.7.877c-3.946-.748-5.545-3.276-7.454-11.71-1.857-8.176-3.534-13-4.849-13.928-.954-.671-1.186.129-1.212,3.921a14.415,14.415,0,0,0,.645,5.417c.877,2.811,2.063,7.4,2.4,9.234.645,3.559.645,3.534-.49,5.288a15.607,15.607,0,0,1-5.829,5.494c-1.6.748-1.96.825-4.333.825-2.4,0-2.682-.052-4-.8a7.6,7.6,0,0,1-3.4-4.307c-.567-1.831-.387-7.016.387-11.529a47.043,47.043,0,0,0,.7-5.339v-1.367h-.954c-.748,0-1.109.206-1.857.98-1.728,1.805-3.921,7.351-4.8,12.1-1.5,8.151-3.3,11.942-5.6,11.942-2.012,0-3.946-2.4-4.772-5.907a26.7,26.7,0,0,1-.464-6.139,30.127,30.127,0,0,0-.155-4.2c-.645,0-1.341,2.605-1.651,6.242-.155,1.806-.077,2.321.774,5.417,1.083,3.895,1.109,3.972,2.5,5.829,1.5,2.038,2.837,2.889,4.411,2.889,1.186,0,1.393-.077,2.373-1.135,1.393-1.419,2.605-4.359,3.25-7.764,1.5-7.738,2.579-11.994,3.224-12.535.464-.387.464-.438-.052,3.585a25.654,25.654,0,0,0-.1,6.758c.258,3.044.387,3.714,1.135,5.288a13.32,13.32,0,0,0,4.9,5.494c1.186.619,1.6.7,3.921.7,2.45,0,2.657-.052,4.514-.954a14.835,14.835,0,0,0,5.907-4.9,15.07,15.07,0,0,0,2.244-5.442c.1-.567.284-.954.49-.954a.353.353,0,0,1,.361.361c0,.7,2.063,4.488,3.1,5.623a6.545,6.545,0,0,1,1.032,1.419,22.249,22.249,0,0,1-2.038,2.579c-4.411,5.133-7.2,10.91-7.454,15.347a12.8,12.8,0,0,0,1.625,6.938,9.451,9.451,0,0,0,5.236,3.74c2.4.7,4.514.413,7.48-1.057,2.27-1.135,2.734-1.5,5.081-3.972,11.3-12.045,17.255-15.45,24.168-13.825.9.206,3.069.8,4.849,1.29l3.224.9.464-.542c.413-.516.567-1.909.438-3.972a4.479,4.479,0,0,0-1.805-2.966,33.944,33.944,0,0,0-3.74-1.78c-4.668-1.986-6.835-3.508-6.835-4.746.026-1.032.929-2.631,2.476-4.307,3.224-3.482,5.03-4.359,6.216-3.044a21.407,21.407,0,0,1,1.625,2.889,13.636,13.636,0,0,0,5.262,6.01,9.567,9.567,0,0,0,6.99.052,10.246,10.246,0,0,0,4.694-4.024c.361-.619.748-1.109.9-1.109.31,0,1.419.774,3.3,2.27l1.419,1.161,1.934-.155a10.721,10.721,0,0,0,2.837-.49,5.941,5.941,0,0,0,2.992-3.276c.232-.645.49-1.393.567-1.625.155-.413.335-.335,1.341.464a23,23,0,0,0,3.327,1.986c2.76,1.367,4.411,1.47,6.293.361,2.4-1.419,3.276-3.379,3.276-7.454a13.892,13.892,0,0,0-.929-5.442,50.4,50.4,0,0,0-2.3-5.623,31.745,31.745,0,0,1-2.708-6.371c0-.232.155-.31.464-.181a7.3,7.3,0,0,0,1.29.31c1.083.181,1.083-.206-.052-1.857-.929-1.419-5.752-6.577-6.113-6.577C894.968-377,894.685-376.69,894.453-376.329Z" transform="translate(-574.86 -117.156)"/><path class="a" d="M177.063-374.266c-.542.593-1.212,2.167-2.115,4.952-.748,2.244-.774,3.559-.026,4.178.7.593,2.3.593,3.559.052a4.752,4.752,0,0,0,2.657-4.282,4.789,4.789,0,0,0-2.605-3.147,1.388,1.388,0,0,1-.954-1.341C177.5-374.7,177.476-374.73,177.063-374.266Zm1.677,4.385c1.78,1.186.9,2.553-1.96,3.044-.774.155-1.006.1-1.135-.258a5.864,5.864,0,0,1,.748-3.121C176.805-370.732,177.682-370.6,178.74-369.881Z" transform="translate(-128.966 -118.962)"/><path class="a" d="M1158.256-368.249a10.759,10.759,0,0,0-3.688,1.057c-.774.7-2.425,4.153-2.218,4.669.129.31.361.387,1.006.284.438-.077,2.089-.284,3.611-.464,3.43-.387,3.792-.181,2.063,1.186-1.934,1.548-4.2,3.817-4.2,4.2,0,.516,1.238.232,3.25-.7a14.359,14.359,0,0,0,7.351-6.887c1.006-2.038.954-2.915-.284-3.508C1163.956-369,1162.2-368.971,1158.256-368.249Z" transform="translate(-854.681 -123.225)"/><path class="a" d="M512.454-357.407c-.516.825-1.367,4.72-1.573,7.351l-.181,2.141,1.212,1.135a4.254,4.254,0,0,0,1.677,1.161c.593,0,1.186-.645,1.7-1.883.387-.954.542-3.018.206-3.018-.129,0-.542.542-.954,1.186l-.748,1.186-.8-.8-.8-.8.593-3.43c.619-3.74.7-4.823.31-4.823C512.97-358,512.686-357.716,512.454-357.407Z" transform="translate(-378.544 -131.255)"/><path class="a" d="M1123.224-337.879a12.957,12.957,0,0,0-2.038,5.984,4.258,4.258,0,0,0,.49,2.94,5.992,5.992,0,0,0,1.264,1.651c.645.464.722.464,1.47.077a3.952,3.952,0,0,0,1.444-1.754c1.47-3.018,1.032-4.2-.825-2.218L1124-330.089l-.671-.619c-.928-.877-.9-2.605.1-5.6a13.871,13.871,0,0,0,.722-2.631C1124.1-339.142,1123.688-338.652,1123.224-337.879Z" transform="translate(-831.54 -145.367)"/><path class="a" d="M94.827-324.046c-1.728,1.573-2.115,2.605-2.244,5.932-.129,3.353-.387,3.637-1.315,1.5-1.161-2.708-3.559-4.746-5.623-4.772-1.5,0-2.063,1.264-1.238,2.837.387.748.49.774,2.089.774a7.666,7.666,0,0,1,2.192.258,10.508,10.508,0,0,1,2.863,4.23c.335,1.573.748,2.476,1.135,2.476.516,0,.567-.155.877-3.972.335-4.153,1.058-7.222,1.857-8.073l.567-.619.49.929a2.678,2.678,0,0,0,.851,1.083c.9.335,1.522-1.341.8-2.244A4.038,4.038,0,0,0,96.22-325,4.6,4.6,0,0,0,94.827-324.046Z" transform="translate(-61.922 -155.743)"/><path class="a" d="M515.395-285.934a10.423,10.423,0,0,0-1.806,4.514c-.026.98.026,1.057,1.96,2.373a13.149,13.149,0,0,0,2.966,1.625c1.29.361,1.573.026,2.631-3.121.722-2.141.748-2.425.413-2.94-.516-.8-1.857-1.573-3.946-2.27C515.911-286.347,515.781-286.347,515.395-285.934Z" transform="translate(-380.685 -184.518)"/><path class="a" d="M300.012-253.756A3.162,3.162,0,0,0,298-251.718c0,.542.748.748,1.315.413a2.1,2.1,0,0,1,1.032-.31c.413,0,.49.1.361.542-1.032,3.25-1.161,3.946-.774,4.54.335.49.619.593,1.625.593a7.438,7.438,0,0,0,4.849-1.7A11.849,11.849,0,0,0,310.432-252c.438-.877.49-1.238.258-1.47-.206-.206-.748.206-2.192,1.677-2.553,2.605-4.049,3.534-5.623,3.534h-1.212l.619-2.012C303.391-253.833,303.133-254.22,300.012-253.756Z" transform="translate(-220.706 -208.494)"/><path class="a" d="M41.605-237.123l-.98.851v4.617l-1.47,1.805c-.825.98-3.843,4.127-6.758,7.016a61.6,61.6,0,0,0-5.107,5.365c.284.284,2.4-.877,4.565-2.5,2.837-2.115,8.228-7.48,9.156-9.1a15.248,15.248,0,0,0,1.161-2.579l.438-1.315,1.29-.129a4.085,4.085,0,0,0,1.728-.49c.98-.825.155-2.657-1.754-3.766A10.412,10.412,0,0,0,42.663-238,13.444,13.444,0,0,0,41.605-237.123Z" transform="translate(-19.817 -220.304)"/><path class="a" d="M442.845-237.261a52.348,52.348,0,0,0-3.173,8.176c-1.057,3.611-.774,6.964.7,8.2a2.254,2.254,0,0,0,3.044.052c1.573-1.058,1.934-1.805,2.038-4.2a6.632,6.632,0,0,0-.129-2.167c-.542.026-.877.464-1.109,1.548-.31,1.341-.9,1.909-1.831,1.677a2.01,2.01,0,0,1-1.548-1.29c-.31-.774.31-4,1.548-8.228C443.464-237.235,443.619-238.447,442.845-237.261Z" transform="translate(-325.365 -220.527)"/><path class="a" d="M1244.295-222.877c-1.057,1.393-2.038,3.534-1.857,4.075.232.748,2.218,2.373,4.024,3.353,1.857.98,1.805,1.032,3.1-1.677.851-1.754.954-3.1.284-3.895a9.434,9.434,0,0,0-3.276-2.089c-.413-.155-.954-.361-1.187-.464C1245.069-223.676,1244.759-223.47,1244.295-222.877Z" transform="translate(-921.53 -230.99)"/><path class="a" d="M591.183-214.368a8.391,8.391,0,0,0-2.115,5.21c-.1,1.573-.052,1.96.361,2.4.413.464.7.542,1.96.413,2.657-.232,4.075-1.6,4.075-3.921,0-1.6-.31-2.089-1.78-2.811-.929-.49-1.29-.825-1.47-1.47l-.232-.851Zm1.573,3.379c1.212.567,1.264,1.548.1,2.192-.748.438-2.063.619-2.347.335-.258-.258.645-2.966.98-2.966A5.211,5.211,0,0,1,592.757-210.989Z" transform="translate(-436.665 -237.074)"/><path class="a" d="M258.458-205.5c-1.444,4.669-1.573,6.19-.619,7.145.98.98,4.1,0,5.21-1.651a3.617,3.617,0,0,0,.567-2.089,2.4,2.4,0,0,0-1.006-2.27,4.281,4.281,0,0,0-1.625-1.109c-.49-.052-.619-.258-.671-1.109-.077-.929-.387-1.393-.877-1.419A11,11,0,0,0,258.458-205.5Zm2.553,2.811c1.083.954,1.083.954.593,1.47a3.367,3.367,0,0,1-1.7.619c-1.006.129-1.186.077-1.186-.284,0-.929.593-2.734.877-2.734A4.346,4.346,0,0,1,261.012-202.687Z" transform="translate(-190.449 -242.566)"/><path class="a" d="M1113.932-201.267a3.826,3.826,0,0,0-.258,1.29c0,.516-.129.619-.7.619-.542,0-.877-.232-1.315-.9-.31-.49-.671-.9-.8-.9s-.31.542-.413,1.186a3.449,3.449,0,0,1-.98,2.063l-.825.877-1.212-.774a5.469,5.469,0,0,0-1.625-.774c-1.109,0-2.579,1.186-7.764,6.216-5.442,5.288-5.829,5.6-10.859,8.9a49.952,49.952,0,0,0-5.494,3.972c-.542,1.006.98.567,4.2-1.186,5.752-3.121,9.621-6.01,12.3-9.182,2.244-2.657,5.984-6.4,6.422-6.4a4.611,4.611,0,0,1,1.29.9,4,4,0,0,0,1.341.9,5.081,5.081,0,0,0,3.224-1.522,3.093,3.093,0,0,1,2.218-1.186c1.883-.258,2.347-.774,2.476-2.708.077-1.186.026-1.677-.232-1.831C1114.37-202.066,1114.19-201.989,1113.932-201.267Z" transform="translate(-802.181 -247.081)"/><path class="a" d="M945.012-193.215A7.182,7.182,0,0,0,943-188.469c0,1.857.155,2.218,1.032,2.682.645.335.877.335,1.805,0a4.387,4.387,0,0,0,2.837-2.192c.438-1.032.206-3.121-.387-3.482-1.522-.9-2.063-1.367-2.141-1.883C946.044-194.092,945.811-194.066,945.012-193.215Zm1.522,3.044c1.29.774,1.367,1.161.438,1.909-.774.619-2.682.748-2.682.206a10.014,10.014,0,0,1,1.006-2.76A9.735,9.735,0,0,1,946.534-190.171Z" transform="translate(-699.342 -253.044)"/><path class="a" d="M684.438-183.593c-1.754.619-2.657,1.315-3.044,2.3a2.913,2.913,0,0,0-.232,1.109,7.735,7.735,0,0,0,2.115-.438,5.991,5.991,0,0,1,2.141-.387c.077.077-.206.645-.645,1.264-1.857,2.476-2.218,3.327-2.321,5.21-.129,2.115.258,2.657,1.934,2.889,1.315.181,2.321-.258,5.545-2.425,4.2-2.786,6.655-5.468,6.655-7.3,0-.284-.1-.516-.206-.516a18.067,18.067,0,0,0-2.373,1.857c-3.688,3.1-7.17,5.107-8.9,5.107-.9,0-.851-1.032.1-2.115,2.012-2.321,3.353-5.623,2.605-6.526C687.429-184.057,685.727-184.057,684.438-183.593Z" transform="translate(-505.029 -260.422)"/><path class="a" d="M738.926-176.6c-11.5,6.087-17.926,10.42-17.926,12.045a1.065,1.065,0,0,0,.258.748,27.975,27.975,0,0,0,4.849-2.786c2.5-1.6,5.855-3.611,7.4-4.436,7.712-4.075,11.994-7.016,11.994-8.279,0-.335-.077-.619-.181-.593C745.194-179.9,742.331-178.409,738.926-176.6Z" transform="translate(-534.602 -263.413)"/><path class="a" d="M1212.987-173.814c-1.341.645-4.153,1.883-6.293,2.734-4.668,1.857-9.337,4.075-10.111,4.823-.774.722-.8,1.831-.052,1.831a20.587,20.587,0,0,0,3.534-1.522c1.651-.851,4.694-2.192,6.758-2.992,4.72-1.857,8.77-3.817,9.492-4.591.7-.722.516-1.47-.31-1.47A14.589,14.589,0,0,0,1212.987-173.814Z" transform="translate(-887.076 -267.054)"/><path class="a" d="M1029.562-168.085c-6.19,3.173-12.355,6.551-13.593,7.48-1.109.825-1.6,1.831-1.187,2.476.361.593-.413,1.006,9.234-4.617,3.327-1.934,6.577-3.74,7.222-4a11.484,11.484,0,0,0,4-2.476c.671-.825.851-1.78.335-1.78C1035.391-171,1032.683-169.685,1029.562-168.085Z" transform="translate(-752.502 -270.022)"/><path class="a" d="M341.173-169.125c-.258,1.083.077,1.831,1.573,3.559a19.327,19.327,0,0,1,2.373,3.482,6.471,6.471,0,0,1,.9,3.869,13.732,13.732,0,0,1-.284,2.837c-.181.619-.155.9.1,1.109.851.7,2.089-2.811,1.805-5.133-.645-5.545-2.734-9.285-5.726-10.188C341.456-169.744,341.3-169.641,341.173-169.125Z" transform="translate(-252.684 -271.02)"/><path class="a" d="M144.311-166.446a12.338,12.338,0,0,1-1.522,1.78c-.077,0-1.29-.671-2.708-1.47-2.476-1.419-2.579-1.444-2.94-.954A16.1,16.1,0,0,0,135-162.319c0,.9,1.032,1.78,3.585,3.044,2.45,1.238,2.811,1.109,3.688-1.083.335-.9.8-1.625,1.032-1.677a8.126,8.126,0,0,1,2.528,1.367,8.126,8.126,0,0,0,2.528,1.367c.49-.1,2.631-4.23,2.631-5.107,0-.851-.98-1.805-2.708-2.682C145.627-168.406,145.833-168.458,144.311-166.446Z" transform="translate(-99.748 -272.229)"/><path class="a" d="M504.445-146.475c-4.23,2.5-8.512,5.726-9.8,7.4-.671.877-.851,1.78-.387,2.063.413.258,2.089-.774,3.74-2.244a47.436,47.436,0,0,1,4.385-3.25c3.327-2.167,4.849-3.585,4.72-4.462-.026-.31-.181-.619-.335-.645A9.451,9.451,0,0,0,504.445-146.475Z" transform="translate(-366.15 -287.377)"/></g></svg>