<svg xmlns="http://www.w3.org/2000/svg" width="18.379" height="22.055" viewBox="0 0 18.379 22.055"><defs><style>.a{fill:#ffa000;}.b{fill:#ffc107;}</style></defs><g transform="translate(0)"><path class="a" d="M156.684,345.008a3.676,3.676,0,1,1-3.676-3.676A3.676,3.676,0,0,1,156.684,345.008Zm0,0" transform="translate(-143.818 -326.629)"/><path class="a" d="M214.251,3.676a.919.919,0,0,1-.919-.919V.919a.919.919,0,0,1,1.838,0V2.757A.919.919,0,0,1,214.251,3.676Zm0,0" transform="translate(-205.061 0)"/><path class="b" d="M39.141,56.371a6.153,6.153,0,0,1-2.186-4.709V49.1a6.433,6.433,0,0,0-12.865,0v2.562a6.162,6.162,0,0,1-2.194,4.717,1.608,1.608,0,0,0,1.046,2.83H38.1a1.609,1.609,0,0,0,1.038-2.838Zm0,0" transform="translate(-21.332 -40.829)"/></g></svg>