<svg xmlns="http://www.w3.org/2000/svg" width="23.418" height="21.521" viewBox="0 0 23.418 21.521"><defs><style>.a{fill:#fcd57e;}.b{fill:#fff;}</style></defs><g transform="translate(-12.704 -15.553)"><path class="a" d="M110.979,105.742a7.463,7.463,0,1,1-8.527-12,9.713,9.713,0,1,0,9.97,9.97A7.448,7.448,0,0,1,110.979,105.742Z" transform="translate(-79.145 -77.998)"/><g transform="translate(12.704 15.553)"><path class="b" d="M307.266,94.3l.344,3.112.344-3.112,3.112-.344-3.112-.344-.344-3.112-.344,3.112-3.112.344Z" transform="translate(-290.28 -90.499)"/><path class="b" d="M77.6,368.171l.246,2.229.246-2.229,2.229-.246-2.229-.246-.246-2.229-.246,2.229-2.229.246Z" transform="translate(-75.281 -348.88)"/><rect class="b" width="0.624" height="0.624" transform="translate(10.071 9.816) rotate(-45)"/><rect class="b" width="0.624" height="0.624" transform="translate(20.661 6.512) rotate(-45)"/><rect class="b" width="0.624" height="0.624" transform="translate(22.534 11.998) rotate(-45)"/><rect class="b" width="0.624" height="0.624" transform="translate(0 2.363) rotate(-45)"/><rect class="b" width="0.624" height="0.624" transform="translate(16.286 20.255) rotate(-45)"/><rect class="b" width="0.624" height="0.624" transform="translate(2.502 0.757) rotate(-45)"/></g></g></svg>