<svg xmlns="http://www.w3.org/2000/svg" width="26.162" height="26.163" viewBox="0 0 26.162 26.163"><defs><style>.a{fill:#509380;}</style></defs><g transform="translate(-0.008)"><path class="a" d="M13.09,0A13.082,13.082,0,1,0,26.17,13.075,13.078,13.078,0,0,0,13.09,0Zm.932,20.354a1.54,1.54,0,0,1-1.055.406,1.593,1.593,0,0,1-1.08-.4,1.4,1.4,0,0,1-.462-1.121,1.444,1.444,0,0,1,.447-1.075,1.507,1.507,0,0,1,1.1-.436,1.489,1.489,0,0,1,1.512,1.511A1.418,1.418,0,0,1,14.022,20.354Zm3.788-9.392a4.625,4.625,0,0,1-.832,1.121q-.481.472-1.73,1.587a7.158,7.158,0,0,0-.553.553,2.251,2.251,0,0,0-.309.436,2.1,2.1,0,0,0-.157.4q-.055.2-.168.695A1.128,1.128,0,0,1,12.855,16.8a1.236,1.236,0,0,1-.888-.345,1.355,1.355,0,0,1-.36-1.024,3.775,3.775,0,0,1,.264-1.476,3.73,3.73,0,0,1,.7-1.1,16.037,16.037,0,0,1,1.177-1.121q.649-.568.938-.857a2.9,2.9,0,0,0,.487-.644,1.551,1.551,0,0,0,.2-.771,1.789,1.789,0,0,0-.6-1.369,2.2,2.2,0,0,0-1.557-.558,2.154,2.154,0,0,0-1.643.563,4.491,4.491,0,0,0-.892,1.658q-.346,1.146-1.308,1.146a1.288,1.288,0,0,1-.959-.4,1.225,1.225,0,0,1-.39-.867,3.67,3.67,0,0,1,.619-1.953,4.761,4.761,0,0,1,1.806-1.638A5.678,5.678,0,0,1,13.21,5.4a5.907,5.907,0,0,1,2.6.543,4.208,4.208,0,0,1,1.74,1.476,3.621,3.621,0,0,1,.614,2.028A3.124,3.124,0,0,1,17.81,10.962Z"/></g></svg>