<svg xmlns="http://www.w3.org/2000/svg" width="21.498" height="21.5" viewBox="0 0 21.498 21.5"><defs><style>.a{fill:#fff;}</style></defs><path class="a" d="M20.92,9.351h0L12.149.579a1.979,1.979,0,0,0-2.8,0L.583,9.345l-.009.009a1.978,1.978,0,0,0,1.317,3.372l.061,0H2.3v6.454A2.319,2.319,0,0,0,4.619,21.5H8.05a.63.63,0,0,0,.63-.63V15.81a1.058,1.058,0,0,1,1.057-1.057h2.024a1.058,1.058,0,0,1,1.057,1.057v5.06a.63.63,0,0,0,.63.63h3.431A2.319,2.319,0,0,0,19.2,19.183V12.729h.324a1.979,1.979,0,0,0,1.4-3.378Zm0,0" transform="translate(0 0.001)"/></svg>