<svg xmlns="http://www.w3.org/2000/svg" width="32" height="32" viewBox="0 0 32 32"><defs><style>.a{fill:#4b4b4d;}.a,.b,.c,.f,.g{fill-rule:evenodd;}.b{fill:#39393b;}.c{fill:#616161;}.d,.f{fill:#424242;}.e{fill:#757575;}.g{fill:#b0855b;}.h{fill:none;}</style></defs><g transform="translate(0.146 0.146)"><g transform="translate(4.037 4.767)"><path class="a" d="M1023.631,590a.493.493,0,0,0,.393-.482V575.375a1.167,1.167,0,0,1-.249.108l-10.81,3.29v0l-.471.143a.924.924,0,0,1-.272.04h-.014l-.184,6.462.184,8.034h0a.484.484,0,0,0,.073-.005h.012a.488.488,0,0,0,.1-.029Z" transform="translate(-1000.39 -571.191)"/><path class="b" d="M267.817,581.039a1.187,1.187,0,0,1-.328-.055l-10.812-3.29v0l-.471-.143-.06-.02-.146-.044v14a.5.5,0,0,0,0,.063.491.491,0,0,0,.346.514l11.281,3.433a.488.488,0,0,0,.093.028h.008l.01,0a.494.494,0,0,0,.075.006Z" transform="translate(-256 -573.271)"/><path class="c" d="M256.668,1095.967l-.009-5.9a3.435,3.435,0,0,0,1.29.943,2.307,2.307,0,0,0,.749.17,1.566,1.566,0,0,0,.891-.213c.651-.395.192-.386.828.439a3.5,3.5,0,0,0,1.431,1.115,2.3,2.3,0,0,0,.749.17,1.566,1.566,0,0,0,.891-.213,1.374,1.374,0,0,0,.494-.517,3.67,3.67,0,0,0,.522.677,4.323,4.323,0,0,0,1.764,1.1,3.423,3.423,0,0,0,.841.161,3.809,3.809,0,0,0,1.361-.268l.025,5.909Z" transform="translate(-256.649 -1077.967)"/><path class="d" d="M280.914,326.571,292.6,330.1a.489.489,0,0,1-.368.339l-11.175,3.434v0a.481.481,0,0,1-.325-.015l-11.176-3.434v0c-.258-.079-.424-.088-.346-.348l11.707-3.506Z" transform="translate(-268.985 -326.215)"/><path class="e" d="M268.609,303.454l11.67,3.527.007.733-11.743,3.838-11.85-3.857.007-.735,11.693-3.506Zm10.284,3.91L268.5,304.223l-10.4,3.118,10.538,3.378Z" transform="translate(-256.682 -303.454)"/><path class="f" d="M259.237,1391.073l-2.117-.613,0,1.245,2.117.671Z" transform="translate(-257.103 -1373.734)"/><path class="f" d="M256.262,1300.925l.843.253V1300l-.843-.253Z" transform="translate(-256.258 -1284.42)"/><path class="f" d="M347.264,1303.58v1.175l2.616.725V1304.3l-1.64-.455a.288.288,0,0,1-.08-.022l-.9-.248Z" transform="translate(-345.859 -1288.191)"/><path class="f" d="M432,1440.763l-1.478-.41-.007,1.388,2.616.8.007-1.459-1.026-.285a.276.276,0,0,1-.111-.031Z" transform="translate(-427.832 -1422.86)"/><path class="f" d="M553.505,1361.915l2.231.618v-1.175l-2.231-.618Z" transform="translate(-548.927 -1344.472)"/><path class="f" d="M639.433,1498.128l-2.232-.618v1.408l2.231.679v-1.443C639.432,1498.145,639.432,1498.137,639.433,1498.128Z" transform="translate(-631.336 -1479.137)"/><path class="f" d="M734.714,1412.145l2.4.666v-1.175l-2.4-.666Z" transform="translate(-727.348 -1393.929)"/><path class="f" d="M819.55,1546.295l-3.221-.9-.033,1.489,3.221.988Z" transform="translate(-807.675 -1526.281)"/><path class="f" d="M927.1,1464.143l1.521.394v-1.175l-1.52-.394v1.159C927.1,1464.133,927.1,1464.138,927.1,1464.143Z" transform="translate(-916.776 -1445.128)"/><path class="f" d="M818.3,1346.055l3.186.844-.035-1.3a2.8,2.8,0,0,1-1.359.24,3.689,3.689,0,0,1-.91-.173,4.469,4.469,0,0,1-.881-.391v.748A.281.281,0,0,1,818.3,1346.055Z" transform="translate(-809.649 -1329.247)"/><path class="f" d="M639.431,1271.318v-1q-.091-.071-.177-.147-.137-.12-.264-.252a4.138,4.138,0,0,1-.332-.388,1.635,1.635,0,0,1-.339.272,1.847,1.847,0,0,1-1.048.253l-.069,0v.651Z" transform="translate(-631.335 -1254.663)"/><path class="f" d="M433.575,1185.01v-.606l-.092-.031c-.04-.014-.08-.029-.12-.045a3.773,3.773,0,0,1-1.548-1.2,3.432,3.432,0,0,1-.309-.469q-.075.051-.153.1a1.7,1.7,0,0,1-.3.142c-.032.012-.064.022-.1.032v1.356Z" transform="translate(-428.268 -1169.129)"/><path class="f" d="M258.532,1144.743v-1.121l-.1,0a2.588,2.588,0,0,1-.839-.189,10.755,10.755,0,0,1-1.19-.777v1.479Z" transform="translate(-256.398 -1129.741)"/><path class="c" d="M1024.12,1107.879c1.292.813,3.466-.172,4.446-1.435a1.387,1.387,0,0,0,.5.522,1.58,1.58,0,0,0,.9.214,2.32,2.32,0,0,0,.755-.171,3.525,3.525,0,0,0,1.444-1.125,3.7,3.7,0,0,0,.461-.775,1.372,1.372,0,0,0,.374.333,1.579,1.579,0,0,0,.9.214,2.324,2.324,0,0,0,.755-.171,3.463,3.463,0,0,0,1.3-.951v5.625l-11.814,3.6Z" transform="translate(-1012.301 -1092.208)"/><path class="f" d="M1022.75,1356.895l.026,1.291,2.72-.747v-.692a4.36,4.36,0,0,1-.5.194,3.733,3.733,0,0,1-.918.175A4.37,4.37,0,0,1,1022.75,1356.895Z" transform="translate(-1010.952 -1340.54)"/><path class="f" d="M1025.913,1462.97l-1.42.391.006,1.177,1.414-.383c0-.005,0-.01,0-.016Z" transform="translate(-1012.668 -1445.129)"/><path class="f" d="M1153.34,1411.027l2.424-.672v-1.185l-2.424.672Z" transform="translate(-1139.533 -1392.157)"/><path class="f" d="M1237.77,1269.171l2.492-.691v-.691a1.848,1.848,0,0,1-.981-.257,1.654,1.654,0,0,1-.342-.275,4.161,4.161,0,0,1-.335.391,4.589,4.589,0,0,1-.673.572q-.079.055-.161.107Z" transform="translate(-1222.664 -1252.428)"/><path class="f" d="M1349.71,1358.5l-2.25.624v1.185l2.25-.624Z" transform="translate(-1330.666 -1342.266)"/><path class="f" d="M1436.3,1181.826l2.96-.82v-1.276l-.065-.014a1.751,1.751,0,0,1-.505-.205,1.646,1.646,0,0,1-.15-.1,4.083,4.083,0,0,1-.317.476,3.808,3.808,0,0,1-1.562,1.214,2.916,2.916,0,0,1-.284.1l-.077.021Z" transform="translate(-1418.139 -1165.929)"/><path class="f" d="M1532.919,1300.83l-2.639.731v1.185l2.639-.731Z" transform="translate(-1510.673 -1285.484)"/><path class="f" d="M1665.22,1139.945l1.969-.546v-1.536a7.666,7.666,0,0,1-1.2.806,2.664,2.664,0,0,1-.747.184l-.025,0Z" transform="translate(-1643.537 -1125.025)"/><path class="f" d="M1739.182,1275.64l-.832.232v1.185l.832-.232Z" transform="translate(-1715.542 -1260.682)"/><path class="f" d="M1037.43,1389.1l-2.134.613V1391l2.134-.671Zm-8.711,2.436-3.09.857v1.572l3.09-.941Zm.563-.13v1.424l2.25-.685v-1.389l-2.251.624C1029.281,1391.389,1029.282,1391.4,1029.282,1391.406Zm5.452-1.537-1.491.413a.28.28,0,0,1-.112.031l-1.035.287v1.424l2.639-.8Z" transform="translate(-1013.787 -1372.395)"/><path class="g" d="M1128.862,759.052l-8.717,2.724a.491.491,0,0,1-.146.022v-1.007l8.717-2.724a.491.491,0,0,1,.146-.022Z" transform="translate(-1106.705 -751.051)"/><path class="g" d="M1123.292,988.853l-3.141.981a.491.491,0,0,1-.146.022v-1.007l3.287-1.027Z" transform="translate(-1106.711 -977.293)"/><path class="g" d="M1485.662,877.1l-3.287,1.027v-1.03l3.141-.982a.49.49,0,0,1,.146-.022Z" transform="translate(-1463.505 -867.279)"/><path class="g" d="M355.288,878.123,352,877.1v-1.007a.491.491,0,0,1,.146.022l3.141.982v1.03Z" transform="translate(-350.524 -867.278)"/><path class="g" d="M360.717,761.776,352,759.052v-1.007a.491.491,0,0,1,.146.022l8.717,2.724V761.8A.491.491,0,0,1,360.717,761.776Z" transform="translate(-350.523 -751.051)"/><path class="g" d="M717.517,989.826l-3.141-.982v-1.03l3.287,1.027v1.007A.491.491,0,0,1,717.517,989.826Z" transform="translate(-707.323 -977.284)"/></g><rect class="h" width="32" height="32" transform="translate(-0.146 -0.146)"/></g></svg>