<svg xmlns="http://www.w3.org/2000/svg" xmlns:xlink="http://www.w3.org/1999/xlink" width="36" height="21.094" viewBox="0 0 36 21.094"><defs><style>.a{fill:url(#a);}.b{fill:url(#b);}</style><linearGradient id="a" x1="0.5" y1="1" x2="0.5" gradientUnits="objectBoundingBox"><stop offset="0" stop-color="#fd5900"/><stop offset="1" stop-color="#ffde00"/></linearGradient><linearGradient id="b" x1="0.5" y1="1" x2="0.5" gradientUnits="objectBoundingBox"><stop offset="0" stop-color="#ffe59a"/><stop offset="1" stop-color="#ffffd5"/></linearGradient></defs><g transform="translate(0 -106)"><g transform="translate(2.18 106)"><g transform="translate(0 0)"><path class="a" d="M46.82,112.328A9.494,9.494,0,0,0,38.6,126.567H55.042a9.494,9.494,0,0,0-8.221-14.239Zm0-2.109a1.054,1.054,0,0,0,1.055-1.055v-2.109a1.055,1.055,0,0,0-2.109,0v2.109A1.054,1.054,0,0,0,46.82,110.219ZM34.164,120.766H32.055a1.055,1.055,0,1,0,0,2.109h2.109a1.055,1.055,0,1,0,0-2.109Zm27.422,0H59.477a1.055,1.055,0,1,0,0,2.109h2.109a1.055,1.055,0,1,0,0-2.109Zm-1.065-6.855a1.053,1.053,0,0,0-1.441-.386l-1.826,1.055a1.055,1.055,0,0,0,1.055,1.827l1.826-1.055A1.055,1.055,0,0,0,60.521,113.91Zm-7.9-2.137a1.055,1.055,0,0,0,1.441-.386l1.055-1.826a1.055,1.055,0,0,0-1.827-1.055l-1.055,1.826A1.054,1.054,0,0,0,52.621,111.773Zm-13.042-.386a1.055,1.055,0,0,0,1.827-1.055l-1.055-1.826a1.055,1.055,0,0,0-1.827,1.055Zm-3.192,3.192-1.826-1.055a1.055,1.055,0,0,0-1.055,1.827l1.826,1.055a1.055,1.055,0,1,0,1.055-1.827Z" transform="translate(-31 -106)"/></g></g><g transform="translate(0 124.984)"><path class="b" d="M34.945,376H1.055a1.055,1.055,0,1,0,0,2.109H34.945a1.055,1.055,0,0,0,0-2.109Z" transform="translate(0 -376)"/></g></g></svg>