<svg xmlns="http://www.w3.org/2000/svg" width="24" height="24" viewBox="0 0 24 24"><defs><style>.a{fill:#ebbb9c;}.a,.b,.d,.e,.f,.g,.h,.i{fill-rule:evenodd;}.b{fill:#3e97df;}.c{fill:#424242;}.d{fill:#fccaa8;}.e{fill:#1e88e5;}.f{fill:#64b5f6;}.g{fill:#625a51;}.h{fill:#ff8f00;}.i{fill:#42a5f5;}.j{fill:none;}</style></defs><g transform="translate(6.888 3.056)"><path class="a" d="M927.72,933.313c-.186-.454-.878-1.375-1.252-2.057l1.039-.745a9.869,9.869,0,0,0,.822,1.675,4.933,4.933,0,0,0,.313.448Z" transform="translate(-922.499 -922.663)"/><path class="a" d="M1026.019,753.619c.712-1.125,2.2-1.95,3.011-3.641.085-.178.163-.149.2-.144.251.033.329.536.329.536-.017.044-.036.089-.055.135-.523,1.034-1.932,3.031-2.534,3.922C1026.067,755.765,1025.509,754.194,1026.019,753.619Z" transform="translate(-1020.692 -744.099)"/><path class="b" d="M845.135,737.009a1.469,1.469,0,0,0,.049,1.522c.614,1.121.818,1.427.818,1.427l1.021-.7-.409-1.338C846.36,737.095,845.438,736.46,845.135,737.009Z" transform="translate(-841.933 -731.225)"/><path class="a" d="M1284.286,596.473a8.334,8.334,0,0,1,.146-1.291c0-.1.256-.463.221-.144-.012.105-.024.227.013.207a1.736,1.736,0,0,0,.212-.491c.012-.06.01-.168.02-.229s.031-.277.185-.339c.1-.041.107.071.12.11s.091-.111.149-.143.076.011.107.027.031.024.056,0c.089-.082.154,0,.146.078-.017.156.109-.029.1.159a5.048,5.048,0,0,1-.5,1.441,4.79,4.79,0,0,0-.324.69S1284.317,596.641,1284.286,596.473Z" transform="translate(-1276.109 -590.235)"/><path class="c" d="M1233.36,1077.718h0Z" transform="translate(-1225.795 -1068.144)"/><path class="d" d="M590.348,1594.577a2.5,2.5,0,0,0-1.325.215c-.77.473-.942.109-1.054-.44a2.789,2.789,0,0,1-.15-1.309c.132-.388.493-.35,1.014-.02.1-.123.422-.1.422-.1Z" transform="translate(-587.776 -1577.156)"/><path class="e" d="M621.805,1351.809a2.389,2.389,0,0,1-.475,1.96c-1.225.759-4.021.518-6.233.37-.205-.377-1.21-.754-.933-2.033a20.514,20.514,0,0,1,4.86.137,9.423,9.423,0,0,0-2.868-.375c-.529-.028-1.667.227-2.3.157-.5-.055-.713-.467-.746-1.062-.123-2.157,2.215-2.02,4.355-1.41a12.641,12.641,0,0,1,2.557,1.177C621.061,1351.3,621.544,1351.24,621.805,1351.809Z" transform="translate(-612.808 -1336.408)"/><path class="f" d="M605.217,680.274a1.986,1.986,0,0,0-1.586,1.085,5.572,5.572,0,0,0-.384,3.124c.061.5-.253,5.18-.245,5.2h0c-.108.419.128,1.27.685,1.332.632.07,1.942-.075,2.47-.047a11.833,11.833,0,0,1,2.691.267c3.167.471,3.975,0,2.48-.954-.233-.1-.977-.41-1.317-.6a12.64,12.64,0,0,0-2.557-1.177l-.073-.021c.011-.182-.385-4.823-.219-5.475a1.919,1.919,0,0,0-.069-1.563A16.5,16.5,0,0,0,605.217,680.274Z" transform="translate(-602.8 -675.358)"/><path class="d" d="M722.36,274.272a6.26,6.26,0,0,1,.49.584,1.481,1.481,0,0,1,.245.736c-.013.149-.147.249-.087.391s.511.965.424,1.076c-.134.168-.172.019-.335.1-.055.026-.058.16-.066.219s.061.564-.163.729a.982.982,0,0,1-.716.06,1.441,1.441,0,0,0-.544.01c-.17.06-.3.737-.308,1.071-.014.384-.441.315-.716.289-.52-.049-1.009-.575-.97-.765s.445-.937.35-1.263-1.382-2.183-.113-3.092,2.234-.459,2.51-.14Z" transform="translate(-717.753 -273.721)"/><path class="g" d="M712.988,275.848c-.248.174-.79.019-.739.424.044.347-.016.3-.15.524-.183.3-.147.358-.392.352-.147.02-.423-.675-.776-.408s.013.832.181.959c.143.108-.365.7-.8.607-.233-.051-.36-.331-.549-.918-.629-1.958.048-2.833,2.089-2.727C713.19,274.73,713.818,275.574,712.988,275.848Z" transform="translate(-708.11 -274.489)"/><path class="h" d="M703.341,261.461a24.857,24.857,0,0,1-3.535,2.323,1.829,1.829,0,0,1,.284-2.475,2.116,2.116,0,0,1,1.255-.49A2.832,2.832,0,0,1,703.341,261.461Z" transform="translate(-698.148 -260.799)"/><path class="d" d="M846.455,975.874c-.236-.493-1.115-1.506-1.589-2.251l1.319-.76a10.323,10.323,0,0,0,1.044,1.826,5.621,5.621,0,0,0,.4.492Z" transform="translate(-841.853 -964.518)"/><path class="d" d="M971.247,794.135c.9-1.179,2.791-2.009,3.823-3.792.109-.188.207-.154.255-.147.319.045.417.587.417.587-.022.047-.045.094-.07.143a51.757,51.757,0,0,1-3.217,4.111C971.307,796.437,970.6,794.732,971.247,794.135Z" transform="translate(-966.509 -783.986)"/><path class="i" d="M741.6,760.782a1.371,1.371,0,0,0,.062,1.633c.779,1.224,1.038,1.56,1.038,1.56l1.3-.708-.519-1.449C743.155,760.919,741.985,760.2,741.6,760.782Z" transform="translate(-739.56 -754.717)"/><path class="d" d="M1299.148,628.237c-.092-.43.179-.858.186-1.378,0-.106.325-.486.281-.146-.015.112-.03.242.016.223a1.662,1.662,0,0,0,.269-.519c.015-.064.012-.18.025-.245s.04-.3.235-.356c.131-.041.135.08.152.122s.115-.116.19-.148.1.014.135.032.039.026.071,0c.112-.084.2,0,.185.089-.022.167.139-.027.122.174a4.7,4.7,0,0,1-.631,1.526,4.614,4.614,0,0,0-.411.728S1299.187,628.418,1299.148,628.237Z" transform="translate(-1290.793 -621.501)"/><path class="i" d="M872.978,698.584a4.148,4.148,0,0,1,.5.194.886.886,0,0,0,.414.468.787.787,0,0,1-.836-.288Z" transform="translate(-869.636 -693.454)"/><path class="i" d="M726.19,662.429a3.325,3.325,0,0,0,1.73.512c-.024.151-.407.883-.42.949-.309.143-1.558-.637-1.655-.8C725.774,663.043,726.035,662.459,726.19,662.429Z" transform="translate(-724.215 -657.722)"/></g><rect class="j" width="24" height="24"/></svg>