<svg xmlns="http://www.w3.org/2000/svg" width="30.55" height="32.731" viewBox="0 0 30.55 32.731"><defs><style>.a{fill:#d3dcfb;}.b{fill:#ebf5fc;}.c{fill:#3c58a0;}.d{fill:#2a428c;}.e{fill:#ff4155;}.f{fill:#e80054;}.g{fill:#4fabf7;}.h{fill:#1886ea;}.i{fill:#ffdd40;}</style></defs><g transform="translate(-17.058)"><g transform="translate(17.058)"><path class="a" d="M31.709,362.764H19.241a2.182,2.182,0,0,1-2.182-2.182V358.4H33.805Z" transform="translate(-17.059 -335.488)"/><path class="b" d="M45.428,73.721V89H19.241a2.182,2.182,0,0,1-2.182-2.182V73.721l15.276-5.455Z" transform="translate(-17.059 -63.902)"/><g transform="translate(2.183 12.002)"><path class="c" d="M52.874,189.916H51.714a.511.511,0,0,1-.511-.511v-1.159a.511.511,0,0,1,.511-.511h1.159a.511.511,0,0,1,.511.511V189.4A.511.511,0,0,1,52.874,189.916Z" transform="translate(-51.203 -187.734)"/><path class="c" d="M121.141,189.916h-1.159a.511.511,0,0,1-.511-.511v-1.159a.511.511,0,0,1,.511-.511h1.159a.511.511,0,0,1,.511.511V189.4A.511.511,0,0,1,121.141,189.916Z" transform="translate(-115.106 -187.734)"/><path class="c" d="M189.407,189.916h-1.159a.511.511,0,0,1-.511-.511v-1.159a.511.511,0,0,1,.511-.511h1.159a.511.511,0,0,1,.511.511V189.4A.511.511,0,0,1,189.407,189.916Z" transform="translate(-179.008 -187.734)"/><path class="c" d="M257.674,189.916h-1.159A.511.511,0,0,1,256,189.4v-1.159a.511.511,0,0,1,.511-.511h1.159a.511.511,0,0,1,.511.511V189.4A.511.511,0,0,1,257.674,189.916Z" transform="translate(-242.91 -187.734)"/><path class="c" d="M325.929,189.916h-1.159a.511.511,0,0,1-.511-.511v-1.159a.511.511,0,0,1,.511-.511h1.159a.511.511,0,0,1,.511.511V189.4A.511.511,0,0,1,325.929,189.916Z" transform="translate(-306.802 -187.734)"/><path class="c" d="M394.2,189.916h-1.159a.511.511,0,0,1-.511-.511v-1.159a.511.511,0,0,1,.511-.511H394.2a.511.511,0,0,1,.511.511V189.4A.511.511,0,0,1,394.2,189.916Z" transform="translate(-370.705 -187.734)"/><path class="c" d="M52.874,258.182H51.714a.511.511,0,0,1-.511-.511v-1.159a.511.511,0,0,1,.511-.511h1.159a.511.511,0,0,1,.511.511v1.159A.511.511,0,0,1,52.874,258.182Z" transform="translate(-51.203 -251.636)"/><path class="c" d="M121.141,258.182h-1.159a.511.511,0,0,1-.511-.511v-1.159a.511.511,0,0,1,.511-.511h1.159a.511.511,0,0,1,.511.511v1.159A.511.511,0,0,1,121.141,258.182Z" transform="translate(-115.106 -251.636)"/><path class="c" d="M189.407,258.182h-1.159a.511.511,0,0,1-.511-.511v-1.159a.511.511,0,0,1,.511-.511h1.159a.511.511,0,0,1,.511.511v1.159A.511.511,0,0,1,189.407,258.182Z" transform="translate(-179.008 -251.636)"/><path class="c" d="M258.185,258.182v-1.637a.545.545,0,0,0-.546-.546h-1.091a.545.545,0,0,0-.546.546v1.091a.546.546,0,0,0,.546.546Z" transform="translate(-242.911 -251.636)"/><path class="c" d="M52.874,326.449H51.714a.511.511,0,0,1-.511-.511v-1.159a.511.511,0,0,1,.511-.511h1.159a.511.511,0,0,1,.511.511v1.159A.511.511,0,0,1,52.874,326.449Z" transform="translate(-51.203 -315.539)"/><path class="c" d="M121.141,326.449h-1.159a.511.511,0,0,1-.511-.511v-1.159a.511.511,0,0,1,.511-.511h1.159a.511.511,0,0,1,.511.511v1.159A.511.511,0,0,1,121.141,326.449Z" transform="translate(-115.106 -315.539)"/><path class="c" d="M189.407,326.449h-1.159a.511.511,0,0,1-.511-.511v-1.159a.511.511,0,0,1,.511-.511h1.159a.511.511,0,0,1,.511.511v1.159A.511.511,0,0,1,189.407,326.449Z" transform="translate(-179.008 -315.539)"/></g><path class="d" d="M399.067,187.733h-1.128a.526.526,0,0,0-.193.037.527.527,0,0,1,.334.49v1.128a.527.527,0,0,1-.334.49.524.524,0,0,0,.193.037h1.128a.527.527,0,0,0,.527-.527V188.26A.527.527,0,0,0,399.067,187.733Z" transform="translate(-373.408 -175.732)"/><path class="d" d="M330.8,187.733h-1.128a.526.526,0,0,0-.193.037.527.527,0,0,1,.334.49v1.128a.527.527,0,0,1-.334.49.524.524,0,0,0,.193.037H330.8a.527.527,0,0,0,.527-.527V188.26A.527.527,0,0,0,330.8,187.733Z" transform="translate(-309.506 -175.732)"/><path class="d" d="M262.544,187.733h-1.128a.526.526,0,0,0-.193.037.527.527,0,0,1,.334.49v1.128a.527.527,0,0,1-.334.49.524.524,0,0,0,.193.037h1.128a.527.527,0,0,0,.527-.527V188.26A.527.527,0,0,0,262.544,187.733Z" transform="translate(-245.614 -175.732)"/><path class="d" d="M194.278,187.733h-1.128a.526.526,0,0,0-.193.037.527.527,0,0,1,.334.49v1.128a.527.527,0,0,1-.334.49.524.524,0,0,0,.193.037h1.128a.527.527,0,0,0,.527-.527V188.26A.527.527,0,0,0,194.278,187.733Z" transform="translate(-181.711 -175.732)"/><path class="d" d="M126.011,187.733h-1.128a.526.526,0,0,0-.193.037.527.527,0,0,1,.334.49v1.128a.527.527,0,0,1-.334.49.524.524,0,0,0,.193.037h1.128a.527.527,0,0,0,.527-.527V188.26A.527.527,0,0,0,126.011,187.733Z" transform="translate(-117.808 -175.732)"/><path class="d" d="M57.745,187.733H56.616a.526.526,0,0,0-.193.037.527.527,0,0,1,.334.49v1.128a.527.527,0,0,1-.334.49.524.524,0,0,0,.193.037h1.128a.527.527,0,0,0,.527-.527V188.26A.527.527,0,0,0,57.745,187.733Z" transform="translate(-53.906 -175.732)"/><path class="d" d="M57.745,256H56.616a.526.526,0,0,0-.193.037.527.527,0,0,1,.334.49v1.128a.527.527,0,0,1-.334.49.525.525,0,0,0,.193.037h1.128a.527.527,0,0,0,.527-.527v-1.128A.527.527,0,0,0,57.745,256Z" transform="translate(-53.906 -239.634)"/><path class="d" d="M57.745,324.267H56.616a.526.526,0,0,0-.193.037.527.527,0,0,1,.334.49v1.128a.527.527,0,0,1-.334.49.525.525,0,0,0,.193.037h1.128a.527.527,0,0,0,.527-.527v-1.128A.527.527,0,0,0,57.745,324.267Z" transform="translate(-53.906 -303.537)"/><path class="d" d="M126.011,256h-1.128a.526.526,0,0,0-.193.037.527.527,0,0,1,.334.49v1.128a.527.527,0,0,1-.334.49.525.525,0,0,0,.193.037h1.128a.527.527,0,0,0,.527-.527v-1.128A.527.527,0,0,0,126.011,256Z" transform="translate(-117.808 -239.634)"/><path class="d" d="M126.011,324.267h-1.128a.526.526,0,0,0-.193.037.527.527,0,0,1,.334.49v1.128a.527.527,0,0,1-.334.49.525.525,0,0,0,.193.037h1.128a.527.527,0,0,0,.527-.527v-1.128A.527.527,0,0,0,126.011,324.267Z" transform="translate(-117.808 -303.537)"/><path class="d" d="M194.278,256h-1.128a.526.526,0,0,0-.193.037.527.527,0,0,1,.334.49v1.128a.527.527,0,0,1-.334.49.525.525,0,0,0,.193.037h1.128a.527.527,0,0,0,.527-.527v-1.128A.527.527,0,0,0,194.278,256Z" transform="translate(-181.711 -239.634)"/><path class="d" d="M263.07,258.182v-1.655a.527.527,0,0,0-.527-.527h-1.128a.526.526,0,0,0-.193.037.527.527,0,0,1,.334.49v1.128a.527.527,0,0,1-.334.49.525.525,0,0,0,.193.037h1.655Z" transform="translate(-245.613 -239.634)"/><path class="d" d="M194.278,324.267h-1.128a.526.526,0,0,0-.193.037.527.527,0,0,1,.334.49v1.128a.527.527,0,0,1-.334.49.525.525,0,0,0,.193.037h1.128a.527.527,0,0,0,.527-.527v-1.128A.527.527,0,0,0,194.278,324.267Z" transform="translate(-181.711 -303.537)"/><path class="a" d="M437.114,143.721v15.906h1.516V144.353Z" transform="translate(-410.261 -134.533)"/><path class="e" d="M45.428,41.771V36.316a2.182,2.182,0,0,0-2.182-2.182H19.241a2.182,2.182,0,0,0-2.182,2.182v5.455Z" transform="translate(-17.059 -31.952)"/><g transform="translate(4.961 3.87)"><path class="f" d="M96.58,61.529H95.16a.494.494,0,1,1,0-.988h1.42a.494.494,0,1,1,0,.988Z" transform="translate(-94.666 -60.541)"/><g transform="translate(3.489)"><path class="f" d="M151.162,61.529h-1.42a.494.494,0,1,1,0-.988h1.42a.494.494,0,1,1,0,.988Z" transform="translate(-149.248 -60.541)"/></g><g transform="translate(12.548)"><path class="f" d="M292.857,61.529h-1.42a.494.494,0,0,1,0-.988h1.42a.494.494,0,0,1,0,.988Z" transform="translate(-290.943 -60.541)"/></g><g transform="translate(16.037)"><path class="f" d="M347.44,61.529h-1.42a.494.494,0,1,1,0-.988h1.42a.494.494,0,1,1,0,.988Z" transform="translate(-345.526 -60.541)"/></g></g><path class="b" d="M122.187,4.091a1.364,1.364,0,1,1-2.728,0V1.364a1.364,1.364,0,1,1,2.727,0V4.091Z" transform="translate(-112.913)"/><path class="b" d="M318.464,4.091a1.364,1.364,0,0,1-2.728,0V1.364a1.364,1.364,0,1,1,2.728,0V4.091Z" transform="translate(-296.642)"/><path class="a" d="M325.99,0a1.357,1.357,0,0,0-.757.229,1.362,1.362,0,0,1,.607,1.134V4.091a1.362,1.362,0,0,1-.607,1.134,1.364,1.364,0,0,0,2.12-1.134V1.364A1.364,1.364,0,0,0,325.99,0Z" transform="translate(-305.532)"/><path class="a" d="M129.712,0a1.357,1.357,0,0,0-.757.229,1.362,1.362,0,0,1,.607,1.134V4.091a1.362,1.362,0,0,1-.607,1.134,1.364,1.364,0,0,0,2.12-1.134V1.364A1.364,1.364,0,0,0,129.712,0Z" transform="translate(-121.802)"/><path class="f" d="M404.505,34.133H402.99a2.182,2.182,0,0,1,2.182,2.182V41.77h1.515V36.315a2.182,2.182,0,0,0-2.182-2.182Z" transform="translate(-378.318 -31.951)"/><path class="f" d="M17.058,111.74H45.427v.988H17.058Z" transform="translate(-17.058 -104.597)"/></g><circle class="g" cx="8.183" cy="8.183" r="8.183" transform="translate(31.243 16.366)"/><circle class="b" cx="6.001" cy="6.001" r="6.001" transform="translate(33.425 18.548)"/><g transform="translate(38.932 20.236)"><path class="c" d="M359.71,320.255a.494.494,0,0,1-.494-.494v-2.728a.494.494,0,0,1,.988,0v2.728A.494.494,0,0,1,359.71,320.255Z" transform="translate(-359.216 -316.54)"/></g><g transform="translate(40.023 24.055)"><path class="c" d="M378.413,377.262h-1.637a.494.494,0,1,1,0-.988h1.637a.494.494,0,1,1,0,.988Z" transform="translate(-376.282 -376.274)"/></g><path class="h" d="M355.851,256c-.255,0-.508.012-.757.035a8.183,8.183,0,0,1,0,16.3c.249.023.5.035.757.035a8.183,8.183,0,0,0,0-16.366Z" transform="translate(-316.426 -239.634)"/><path class="a" d="M355.86,290.133a6.061,6.061,0,0,0-.757.047,6,6,0,0,1,0,11.907,6,6,0,1,0,.757-11.954Z" transform="translate(-316.434 -271.585)"/><circle class="i" cx="1.091" cy="1.091" r="1.091" transform="translate(38.334 23.457)"/></g></svg>