<svg xmlns="http://www.w3.org/2000/svg" width="50" height="50" viewBox="0 0 50 50"><defs><style>.a{fill:#55acee;}.b{fill:#f1f2f2;}</style></defs><g transform="translate(-0.001)"><circle class="a" cx="25" cy="25" r="25" transform="translate(0.001 0)"/><g transform="translate(11.188 15.165)"><path class="b" d="M54.23,36.83a11.923,11.923,0,0,1-3.432.94,5.992,5.992,0,0,0,2.628-3.305,11.963,11.963,0,0,1-3.795,1.45,5.981,5.981,0,0,0-10.183,5.451A16.963,16.963,0,0,1,27.13,35.121,5.982,5.982,0,0,0,28.979,43.1a5.934,5.934,0,0,1-2.706-.748c0,.025,0,.051,0,.076a5.979,5.979,0,0,0,4.794,5.859,6,6,0,0,1-2.7.1,5.982,5.982,0,0,0,5.582,4.15A12.063,12.063,0,0,1,25.1,55.014,16.9,16.9,0,0,0,34.262,57.7c10.991,0,17-9.105,17-17,0-.259-.006-.517-.017-.773A12.118,12.118,0,0,0,54.23,36.83Z" transform="translate(-25.103 -34.028)"/></g></g></svg>