<svg xmlns="http://www.w3.org/2000/svg" width="52.223" height="52.451" viewBox="0 0 52.223 52.451"><defs><style>.a{fill:#e5e5e5;}.b,.d{fill:#fff;}.c{fill:#64b161;}.d{fill-rule:evenodd;}</style></defs><g transform="translate(0 0.001)"><path class="a" d="M1.116,52.45A1.116,1.116,0,0,1,.04,51.04L3.45,38.588A26.009,26.009,0,1,1,26.216,52.02h-.011a26.06,26.06,0,0,1-12.034-2.955L1.4,52.414a1.122,1.122,0,0,1-.283.036Zm0,0" transform="translate(0 0)"/><path class="b" d="M10.894,61.114l3.531-12.895A24.892,24.892,0,1,1,35.995,60.683h-.011A24.87,24.87,0,0,1,24.09,57.654ZM24.7,53.149l.756.448a20.661,20.661,0,0,0,10.53,2.884h.008a20.687,20.687,0,1,0-17.526-9.693l.492.783L16.871,55.2Zm0,0" transform="translate(-9.778 -9.779)"/><path class="c" d="M19.344,67.863l3.409-12.449A24.03,24.03,0,1,1,43.575,67.447h-.011a24.026,24.026,0,0,1-11.482-2.924Zm0,0" transform="translate(-17.362 -17.398)"/><g transform="translate(1.116 1.116)"><path class="b" d="M10.894,61.114l3.531-12.895A24.892,24.892,0,1,1,35.995,60.683h-.011A24.87,24.87,0,0,1,24.09,57.654ZM24.7,53.149l.756.448a20.661,20.661,0,0,0,10.53,2.884h.008a20.687,20.687,0,1,0-17.526-9.693l.492.783L16.871,55.2Zm0,0" transform="translate(-10.894 -10.895)"/><path class="d" d="M138.873,142.7c-.466-1.036-.956-1.056-1.4-1.074-.363-.016-.778-.015-1.192-.015a2.286,2.286,0,0,0-1.658.778,6.972,6.972,0,0,0-2.177,5.187c0,3.06,2.229,6.017,2.54,6.433s4.3,6.9,10.624,9.388c5.254,2.072,6.323,1.66,7.463,1.556s3.68-1.5,4.2-2.957a5.194,5.194,0,0,0,.363-2.957c-.156-.259-.57-.415-1.192-.725s-3.68-1.816-4.25-2.023-.985-.311-1.4.312-1.606,2.022-1.969,2.437-.726.468-1.348.156a17.006,17.006,0,0,1-5-3.087,18.74,18.74,0,0,1-3.46-4.307c-.363-.622-.006-.929.273-1.269a18.753,18.753,0,0,0,1.554-2.127,1.146,1.146,0,0,0-.052-1.09C140.634,147.008,139.425,143.932,138.873,142.7Zm0,0" transform="translate(-119.994 -128.222)"/></g></g></svg>